<svg width="24" height="24" viewBox="0 0 24 24" fill="none" xmlns="http://www.w3.org/2000/svg">
<path d="M12 22.7427C10.4693 22.7427 9.03292 22.4526 7.69085 21.8722C6.34877 21.2991 5.16992 20.5047 4.1543 19.4891C3.13867 18.4662 2.34068 17.2874 1.76032 15.9526C1.18722 14.6105 0.900669 13.1741 0.900669 11.6434C0.900669 10.1127 1.18722 8.67634 1.76032 7.33426C2.34068 5.99219 3.13867 4.81334 4.1543 3.79771C5.16992 2.78209 6.34877 1.98772 7.69085 1.41462C9.03292 0.834263 10.4693 0.544084 12 0.544084C13.5307 0.544084 14.9671 0.834263 16.3092 1.41462C17.6512 1.98772 18.8301 2.78209 19.8457 3.79771C20.8613 4.81334 21.6557 5.99219 22.2288 7.33426C22.8092 8.67634 23.0993 10.1127 23.0993 11.6434C23.0993 13.1741 22.8092 14.6105 22.2288 15.9526C21.6557 17.2874 20.8613 18.4662 19.8457 19.4891C18.8301 20.5047 17.6512 21.2991 16.3092 21.8722C14.9671 22.4526 13.5307 22.7427 12 22.7427ZM12 13.6674C12.5658 13.6674 12.8524 13.37 12.8597 12.7751L13.0229 6.85547C13.0301 6.57254 12.9322 6.33677 12.7291 6.14816C12.5332 5.95229 12.2866 5.85435 11.9891 5.85435C11.6844 5.85435 11.4342 5.94866 11.2383 6.13728C11.0497 6.32589 10.959 6.56166 10.9662 6.84459L11.1077 12.7751C11.1222 13.37 11.4196 13.6674 12 13.6674ZM12 17.3128C12.3265 17.3128 12.6094 17.2003 12.8488 16.9754C13.0954 16.7506 13.2188 16.4749 13.2188 16.1484C13.2188 15.822 13.0954 15.5463 12.8488 15.3214C12.6094 15.0893 12.3265 14.9732 12 14.9732C11.6663 14.9732 11.3797 15.0893 11.1403 15.3214C10.9009 15.5536 10.7813 15.8292 10.7813 16.1484C10.7813 16.4749 10.9009 16.7506 11.1403 16.9754C11.387 17.2003 11.6735 17.3128 12 17.3128Z" fill="#FF3B30"/>
</svg>
