<svg width="315" height="314" viewBox="0 0 315 314" fill="none" xmlns="http://www.w3.org/2000/svg">
<g filter="url(#filter0_d_304_4453)">
<path opacity="0.2" d="M164.43 65.714C134.284 61.9894 106.345 83.3233 101.892 113.743C98.7451 135.235 108.003 155.633 124.198 167.627C127.741 170.251 129.878 174.361 129.986 178.763C129.993 179.042 129.992 179.323 129.982 179.604L129.07 206.485C129.032 207.606 130.159 208.674 131.572 208.874L143.752 210.599L164.43 65.714Z" fill="#8E8E93"/>
<path d="M131.385 210.158C129.305 209.86 127.725 208.234 127.786 206.453L128.699 179.572C128.708 179.316 128.708 179.06 128.702 178.806C128.603 174.773 126.683 171.08 123.434 168.673C106.249 155.946 97.5075 134.831 100.621 113.568C105.231 82.0802 134.417 60.104 165.683 64.5784C165.685 64.5787 165.689 64.5793 165.691 64.5796C197.02 69.0683 218.88 98.4117 214.424 129.998C211.439 151.152 197.212 168.896 177.296 176.305C173.514 177.712 170.65 180.727 169.439 184.576C169.363 184.816 169.293 185.061 169.23 185.309L162.67 211.393C162.236 213.123 160.264 214.248 158.18 213.953L131.391 210.159C131.389 210.159 131.387 210.159 131.385 210.158ZM165.328 67.1253C165.324 67.1248 165.323 67.1246 165.32 67.1241C135.45 62.8489 107.566 83.8511 103.161 113.941C100.185 134.263 108.538 154.443 124.96 166.605C128.85 169.487 131.149 173.911 131.268 178.743C131.275 179.048 131.274 179.353 131.264 179.66L130.351 206.541C130.339 206.887 130.89 207.49 131.748 207.613C131.749 207.613 131.75 207.613 131.751 207.613L158.54 211.406C159.399 211.528 160.097 211.101 160.181 210.765L166.742 184.683C166.815 184.388 166.9 184.094 166.99 183.804C168.442 179.191 171.873 175.58 176.402 173.894C195.434 166.814 209.03 149.856 211.882 129.638C216.141 99.4554 195.256 71.413 165.328 67.1253Z" fill="#8E8E93"/>
<path d="M137.361 185.606C135.538 185.644 134.032 184.185 133.998 182.349L132.765 116.712C132.731 114.875 134.18 113.356 136.003 113.318C137.826 113.28 139.331 114.738 139.366 116.575L140.598 182.211C140.633 184.048 139.183 185.568 137.361 185.606Z" fill="#8E8E93"/>
<path d="M159.237 188.702C160.978 189.244 162.828 188.261 163.369 186.506L182.712 123.783C183.253 122.028 182.281 120.165 180.54 119.622C178.799 119.08 176.949 120.063 176.408 121.818L157.065 184.541C156.524 186.296 157.496 188.159 159.237 188.702Z" fill="#8E8E93"/>
<path d="M131.383 210.158C129.304 209.86 127.724 208.234 127.786 206.453L128.698 179.572C128.707 179.316 128.707 179.06 128.701 178.807L128.664 177.29L169.891 183.128L169.439 184.574C169.362 184.816 169.292 185.061 169.23 185.31L162.669 211.393C162.235 213.123 160.263 214.248 158.18 213.953L131.391 210.159C131.389 210.159 131.385 210.158 131.383 210.158ZM131.243 180.252L130.351 206.541C130.339 206.887 130.89 207.49 131.746 207.612C131.748 207.613 131.748 207.613 131.75 207.613L158.539 211.407C159.398 211.528 160.096 211.102 160.18 210.766L166.596 185.259L131.243 180.252Z" fill="#8E8E93"/>
</g>
<defs>
<filter id="filter0_d_304_4453" x="0" y="-36" width="315" height="350" filterUnits="userSpaceOnUse" color-interpolation-filters="sRGB">
<feFlood flood-opacity="0" result="BackgroundImageFix"/>
<feColorMatrix in="SourceAlpha" type="matrix" values="0 0 0 0 0 0 0 0 0 0 0 0 0 0 0 0 0 0 127 0" result="hardAlpha"/>
<feOffset/>
<feGaussianBlur stdDeviation="50"/>
<feComposite in2="hardAlpha" operator="out"/>
<feColorMatrix type="matrix" values="0 0 0 0 1 0 0 0 0 1 0 0 0 0 1 0 0 0 0.25 0"/>
<feBlend mode="normal" in2="BackgroundImageFix" result="effect1_dropShadow_304_4453"/>
<feBlend mode="normal" in="SourceGraphic" in2="effect1_dropShadow_304_4453" result="shape"/>
</filter>
</defs>
</svg>
