<svg width="24" height="24" viewBox="0 0 24 24" fill="none" xmlns="http://www.w3.org/2000/svg">
<path d="M10.8431 20.9876C10.5723 20.9876 10.3409 20.9115 10.1491 20.7591C9.95725 20.6068 9.82747 20.3952 9.75977 20.1243L9.34505 18.3724C9.21528 18.3273 9.0855 18.2793 8.95573 18.2285C8.8316 18.1777 8.71311 18.127 8.60026 18.0762L7.07682 19.0156C6.85113 19.1567 6.61415 19.2159 6.36589 19.1934C6.11762 19.1708 5.89757 19.0636 5.70573 18.8717L4.6224 17.7969C4.4362 17.605 4.33181 17.3822 4.30924 17.1283C4.28668 16.8687 4.34874 16.6261 4.49544 16.4004L5.41797 14.8854C5.36719 14.7669 5.31641 14.6484 5.26563 14.5299C5.22049 14.4115 5.17817 14.2901 5.13867 14.166L3.37826 13.7513C3.10742 13.6892 2.89583 13.5623 2.74349 13.3704C2.59115 13.1786 2.51497 12.9444 2.51497 12.668V11.153C2.51497 10.8878 2.59115 10.6593 2.74349 10.4674C2.89583 10.27 3.10742 10.1402 3.37826 10.0781L5.12174 9.66341C5.16124 9.52235 5.20638 9.39258 5.25716 9.27409C5.31359 9.1556 5.36437 9.04275 5.40951 8.93555L4.47852 7.38672C4.33181 7.14974 4.26693 6.90994 4.28385 6.66732C4.30642 6.41905 4.41645 6.20182 4.61393 6.01562L5.70573 4.93229C5.89757 4.74609 6.10916 4.63889 6.34049 4.61068C6.57747 4.58246 6.81163 4.63325 7.04297 4.76302L8.5918 5.72786C8.70464 5.67144 8.82596 5.61784 8.95573 5.56706C9.0855 5.51063 9.21528 5.45985 9.34505 5.41471L9.75977 3.6543C9.82747 3.38911 9.95725 3.18034 10.1491 3.02799C10.3409 2.87001 10.5723 2.79102 10.8431 2.79102H12.3919C12.6628 2.79102 12.8941 2.87001 13.0859 3.02799C13.2778 3.18034 13.4047 3.38911 13.4668 3.6543L13.89 5.43164C14.0254 5.47678 14.1552 5.52474 14.2793 5.57552C14.4034 5.6263 14.5191 5.6799 14.6263 5.73633L16.2005 4.76302C16.4206 4.63325 16.6463 4.58529 16.8776 4.61914C17.1146 4.65299 17.329 4.75456 17.5208 4.92383L18.6211 6.01562C18.8186 6.20182 18.9258 6.41905 18.9427 6.66732C18.9653 6.90994 18.906 7.14974 18.765 7.38672L17.8255 8.93555C17.8707 9.04275 17.9186 9.1556 17.9694 9.27409C18.0202 9.39258 18.0681 9.52235 18.1133 9.66341L19.8652 10.0781C20.1304 10.1402 20.3392 10.27 20.4915 10.4674C20.6439 10.6593 20.7201 10.8878 20.7201 11.153V12.668C20.7201 12.9444 20.6439 13.1786 20.4915 13.3704C20.3392 13.5623 20.1304 13.6892 19.8652 13.7513L18.0964 14.166C18.0569 14.2901 18.0117 14.4115 17.9609 14.5299C17.9158 14.6484 17.865 14.7669 17.8086 14.8854L18.7396 16.4004C18.8919 16.6261 18.9568 16.8687 18.9342 17.1283C18.9117 17.3822 18.8045 17.605 18.6126 17.7969L17.5293 18.8717C17.3375 19.0636 17.1174 19.1708 16.8691 19.1934C16.6209 19.2159 16.3839 19.1567 16.1582 19.0156L14.6263 18.0762C14.5135 18.127 14.395 18.1777 14.2708 18.2285C14.1467 18.2793 14.0197 18.3273 13.89 18.3724L13.4668 20.1243C13.4047 20.3952 13.2778 20.6068 13.0859 20.7591C12.8941 20.9115 12.6628 20.9876 12.3919 20.9876H10.8431ZM11.6217 14.8346C12.1578 14.8346 12.6487 14.702 13.0944 14.4368C13.5401 14.1717 13.8956 13.8162 14.1608 13.3704C14.426 12.9247 14.5586 12.431 14.5586 11.8893C14.5586 11.3477 14.426 10.8539 14.1608 10.4082C13.8956 9.96246 13.5401 9.60699 13.0944 9.3418C12.6487 9.07661 12.1578 8.94401 11.6217 8.94401C11.0744 8.94401 10.5779 9.07661 10.1322 9.3418C9.69206 9.60699 9.33941 9.96246 9.07422 10.4082C8.80903 10.8539 8.67643 11.3477 8.67643 11.8893C8.67643 12.431 8.80903 12.9247 9.07422 13.3704C9.33941 13.8162 9.69206 14.1717 10.1322 14.4368C10.5779 14.702 11.0744 14.8346 11.6217 14.8346Z" fill="#8E8E93"/>
</svg>
